<svg id="integrations" xmlns="http://www.w3.org/2000/svg" viewBox="0 0 1430 800"><style>.st0,.st1,.st2,.st3,.st4,.st5,.st6{fill:none;stroke:#e5e7ea;stroke-width:3;stroke-linecap:round;stroke-miterlimit:10}.st1,.st2,.st3,.st4,.st5,.st6{stroke:#fb8532}.st2,.st3,.st4,.st5,.st6{stroke:#34d058}.st3,.st4,.st5,.st6{stroke:#2088ff}.st4,.st5,.st6{stroke:#ffd33d}.st5,.st6{stroke:#ea4a5a}.st6{stroke:#8a64d2}</style><title>satellite-launch-site-heroes</title><circle class="st0" cx="1404.4" cy="488" r="5"/><path class="st0" d="M138.4 371.3H57.6M161.2 391v99.5c0 10.4 8.4 18.8 18.8 18.8h39c10.4 0 18.8-8.4 18.8-18.8V390c0-10.4 8.4-18.8 18.8-18.8h8M1320.3 582.2V441c0-10.4-8.4-18.8-18.8-18.8h-45.6c-10.4 0-18.8-8.4-18.8-18.8v-9.8M1429 665.5h-89.4c-10.4 0-18.8-8.4-18.8-18.8V624M161.2 349.2v-69.8c0-10.4-8.4-18.8-18.8-18.8H108c-10.4 0-18.8-8.4-18.8-18.8v-4.3"/><path class="st0" d="M89.2 535.6v-77.7c0-10.4 8.4-18.8 18.8-18.8h34.4c10.4 0 18.8-8.4 18.8-18.8V416M1299.3 244.3l-76.3-.2c-10.4 0-18.8-8.5-18.7-18.8l.1-27.1c0-10.4-8.4-18.8-18.7-18.8h-4.3M1095.9 341.5l.2-143.3c0-10.4 8.5-18.8 18.8-18.7l24.1.1M0 34.8h11.5c10.4 0 18.8 8.4 18.8 18.8v51.7c0 10.4 8.4 18.8 18.8 18.8h93.4c10.4 0 18.8 8.4 18.8 18.8V350.3M1341.9 244.3h14.3c10.4 0 18.7 8.4 18.8 18.7v115.7c0 10.4 8.4 18.8 18.8 18.8h35.3M31.3 321.2v14.3c0 10.4-8.4 18.8-18.8 18.8H0"/><path class="st0" d="M1237.1 352.4v-14c0-10.4-8.4-18.8-18.8-18.8h-103.7c-10.4 0-18.8 8.4-18.8 18.8v14M90.3 193.8c0-10.4-8.4-18.8-18.8-18.8H49.9c-10.4 0-18.8 8.4-18.8 18.8v86.5"/><path class="st0" d="M90.3 193.8c0-10.4-8.4-18.8-18.8-18.8H49.9c-10.4 0-18.8 8.4-18.8 18.8v86.5M1320.3 441V264.8M1141.7 319.6c10.4 0 18.8-8.4 18.8-18.8V200.4"/><path class="st1" d="M1106.3 386.6h-21.7c-1.7 0-3-1.3-3-3v-21.7c0-1.7 1.3-3 3-3h21.7c1.7 0 3 1.3 3 3v21.7c0 1.6-1.3 3-3 3z"/><path class="st2" d="M296.3 385.1h-21.7c-1.7 0-3-1.3-3-3v-21.7c0-1.7 1.3-3 3-3h21.7c1.7 0 3 1.3 3 3v21.7c0 1.7-1.3 3-3 3z"/><path class="st0" d="M464.8 97.9h-21.7c-1.7 0-3-1.3-3-3V73.1c0-1.7 1.3-3 3-3h21.7c1.7 0 3 1.3 3 3v21.7c0 1.7-1.3 3.1-3 3.1zM172.1 385.1h-21.7c-1.7 0-3-1.3-3-3v-21.7c0-1.7 1.3-3 3-3h21.7c1.7 0 3 1.3 3 3v21.7c0 1.7-1.4 3-3 3zM42.2 315.1H20.5c-1.7 0-3-1.3-3-3v-21.7c0-1.7 1.3-3 3-3h21.7c1.7 0 3 1.3 3 3v21.7c0 1.7-1.3 3-3 3z"/><path class="st3" d="M100.1 230.1H78.4c-1.7 0-3-1.3-3-3v-21.7c0-1.7 1.3-3 3-3h21.7c1.7 0 3 1.3 3 3v21.7c0 1.7-1.4 3-3 3z"/><path class="st4" d="M100.1 571.5H78.4c-1.7 0-3-1.3-3-3v-21.7c0-1.7 1.3-3 3-3h21.7c1.7 0 3 1.3 3 3v21.7c0 1.6-1.4 3-3 3z"/><path class="st0" d="M1171.4 193.3h-21.7c-1.7 0-3-1.3-3-3v-21.7c0-1.7 1.3-3 3-3h21.7c1.7 0 3 1.3 3 3v21.7c0 1.7-1.4 3-3 3z"/><path class="st5" d="M1331.2 617.1h-21.7c-1.7 0-3-1.3-3-3v-21.7c0-1.7 1.3-3 3-3h21.7c1.7 0 3 1.3 3 3v21.7c0 1.7-1.4 3-3 3z"/><path class="st6" d="M1331.2 258.1h-21.7c-1.7 0-3-1.3-3-3v-21.7c0-1.7 1.3-3 3-3h21.7c1.7 0 3 1.3 3 3v21.7c0 1.7-1.4 3-3 3z"/><path class="st0" d="M1248 386.6h-21.7c-1.7 0-3-1.3-3-3v-21.7c0-1.7 1.3-3 3-3h21.7c1.7 0 3 1.3 3 3v21.7c0 1.6-1.3 3-3 3zM119.1 390.9H81.3M199.7 371.3h-16.5M111.6 508.6H102M78.7 508.6H60.6M64.1 547.8H22.9M75.1 587H29.8M236.8 587h-91.3M165.8 567.4h-51.5M59.8 567.4H47.4M197.3 567.4H185M1141.7 300h-17.3M1260.3 300h-79M1357.1 358.8h-25.2M1429 378.8h-37.3M1429 359.2h-21.6M1216 280.4h-23.7M1244.3 280.4h-12.2M119.1 371.3c-10.4 0-18.8 8.4-18.8 18.7M801 103.6h-37.8M919.2 103.6h-105M747.3 103.6h-61.4M821 123.2h-40.1M848.7 123.2h-10.8M134.4 103.6h-16.6M420.5 103.6H377M438 123.2h-39.9M483.7 123.2h-13.8M1105.6 103.6h-49.9M1148.5 103.6h-26.1M1232.1 103.6h-54.7M1207.9 123.2h-24.1M1139.1 123.2h-43.7M821 64.4h-31.2M376.5 64.4h-20.8M774.8 64.4h-10.9M801 84c-10.4 0-18.8 8.4-18.8 18.8M1160.5 44.2V158M887.2 5.6c0 10.4 8.4 18.8 18.8 18.8h235.8c10.4 0 18.8 8.4 18.8 18.8M1272.6 469.6h-52.5M1257.7 489.3h47.8M1336.4 489.3h58.8M1381.5 508.9h-36.2M1356.2 528.5h-13.9M1302.2 469.6h-13.9M1280.2 606.7h10.6M1301.4 626.3H1227M1384.2 626.3h-30.3M1296.1 645.9h-33.2M1362.2 645.9h-23.8M1428.7 645.9H1378M1200.9 280.4l19.5 19.6M1359.2 508.8l19.6-19.5M148.2 280.4h-18.8M225.2 280.4h-54M200.8 260.6h-21.5M145.5 241h-34.8M231.5 142.9h-52.2M147.7 142.9h-31M183.2 123.2h-12M94.8 84H78.2M103.7 103.5H48.3M403.2 104.5c0 10.4 8.4 18.8 18.8 18.8M1115.8 123.2c10.4 0 18.8-8.4 18.8-18.8"/><path class="st0" d="M480.3 84h388.1c10.4 0 18.8-8.4 18.8-18.8V.1M337.3 0v65.2c0 10.3 8.4 18.7 18.7 18.8h71.2"/><path class="st0" d="M337.3 0v65.2c0 10.3 8.4 18.7 18.7 18.8h71.2M454 110.7v74.1c0 10.4-8.4 18.8-18.8 18.8h-131c-10.4 0-18.8 8.4-18.8 18.8v127.2M89.1 579.6l.1 55.7c0 10.3-8.4 18.7-18.8 18.7H0"/><circle class="st0" cx="1237.1" cy="103.6" r="5"/><circle class="st0" cx="1214" cy="469.6" r="5"/><circle class="st0" cx="230.1" cy="280.3" r="5"/><circle class="st0" cx="55.5" cy="508.9" r="5"/></svg>