<svg id="Layer_1" xmlns="http://www.w3.org/2000/svg" viewBox="0 0 1366 849"><style>.st0{fill:url(#SVGID_1_)}.st1{fill:url(#SVGID_2_)}.st2{opacity:.5;fill:url(#SVGID_3_)}</style><linearGradient id="SVGID_1_" gradientUnits="userSpaceOnUse" x1="884.362" y1="196.4" x2="884.362" y2="701.805" gradientTransform="rotate(180 671.45 425)"><stop offset="0" stop-color="#fff" stop-opacity="0"/><stop offset=".519" stop-color="#f8fafb" stop-opacity=".415"/><stop offset="1" stop-color="#ecf2f5" stop-opacity=".8"/></linearGradient><path class="st0" d="M635.1 217.1c-229.5-117-323.6 69.5-448.5-16.5C95.1 137.6 0 149 0 149v504.6h872.1l45-225s-176.7-164.5-282-211.5z"/><linearGradient id="SVGID_2_" gradientUnits="userSpaceOnUse" x1="683.45" y1="196.4" x2="683.45" y2="701" gradientTransform="matrix(1 0 0 -1 0 850)"><stop offset="0" stop-color="#fff" stop-opacity="0"/><stop offset=".519" stop-color="#f8fafb" stop-opacity=".415"/><stop offset="1" stop-color="#ecf2f5" stop-opacity=".8"/></linearGradient><path class="st1" d="M0 327v326.6h1366.9V149s-140.8 14.1-251.8 68.1c-123.8 60.2-676.4 196.7-948 114L0 327z"/><linearGradient id="SVGID_3_" gradientUnits="userSpaceOnUse" x1="683.5" y1="184" x2="683.5" y2="728.973" gradientTransform="matrix(1 0 0 -1 0 850)"><stop offset="0" stop-color="#fff" stop-opacity="0"/><stop offset=".519" stop-color="#f8fafb" stop-opacity=".415"/><stop offset="1" stop-color="#ecf2f5" stop-opacity=".8"/></linearGradient><path class="st2" d="M1367 228.2V666H0V291s141.8-38 316-6c274.9 50.4 376.8-177.4 566.8-163.3 44.2 3.3 86.8 17.8 124.3 41.5 194.7 122.5 359.9 65 359.9 65z"/></svg>